<svg width="120" height="36" viewBox="0 0 120 36" fill="none" xmlns="http://www.w3.org/2000/svg">
<circle cx="18" cy="18" r="18" fill="#191919"/>
<g clip-path="url(#clip0_9_16)">
<path d="M26.7442 19.5431C28.1373 18.9525 29.0762 17.7397 28.9951 16.1648C28.9726 15.7274 28.8757 15.2947 28.7144 14.8888C28.5655 14.5141 28.3255 14.2004 28.1547 13.8401C27.8033 13.0989 27.642 12.2764 27.3506 11.5112C26.097 8.21941 21.9864 7.221 19.0159 8.60556C17.6829 9.22686 16.6538 10.3387 15.996 11.6583C17.0152 11.3019 18.1691 11.5095 19.007 12.1975C18.9741 12.2433 18.942 12.2894 18.9114 12.3361C17.5129 11.293 15.4717 11.7788 14.6611 13.3316C13.8776 14.8326 14.5627 16.755 16.106 17.4054C17.0409 17.7994 18.1363 17.6579 18.9437 17.0381C18.9785 17.081 19.0146 17.1229 19.0515 17.1639C18.1114 17.9646 16.7574 18.1395 15.6516 17.5969C16.0522 18.2483 16.6138 18.7838 17.2541 19.1875C16.78 20.0602 16.4583 21.0433 16.4356 22.0461C16.4149 22.9576 16.4634 23.9421 16.788 24.8019C15.9639 24.7816 15.0195 24.6235 14.4404 23.9672C13.8933 23.3472 13.7883 22.4403 13.7896 21.6416C13.7911 20.6568 14.0055 19.7138 14.1355 18.7445C14.2649 17.7794 14.1813 16.7691 13.7754 15.878C12.9586 14.0851 10.7586 13.0314 8.92657 13.875C7.1356 14.6996 6.26925 17.1666 7.76216 18.7066C8.3699 19.3335 9.29497 19.6654 10.1422 19.4078C10.936 19.1664 11.5693 18.4385 11.65 17.5905C11.7305 16.744 11.1584 15.8568 10.3165 15.6828C9.88968 15.5946 9.47833 15.9205 9.50771 16.3764C9.52052 16.5751 9.6244 16.7626 9.78542 16.8768C9.96415 17.0036 10.1914 16.9956 10.2997 17.2174C10.5066 17.6412 10.0409 18.0936 9.65937 18.1548C9.19975 18.2286 8.72978 17.8973 8.49859 17.5144C7.96207 16.626 8.58532 15.5195 9.42374 15.1102C10.229 14.717 11.1964 14.9497 11.87 15.5068C12.4531 15.9892 12.7721 16.711 12.8563 17.4602C12.9617 18.3979 12.6808 19.3232 12.5693 20.2478C12.4579 21.1711 12.4143 22.1262 12.6035 23.0424C12.7785 23.8892 13.1773 24.678 13.8482 25.2268C14.5182 25.7749 15.3657 26.0221 16.2104 26.1044C16.7401 26.156 17.2743 26.1459 17.804 26.1017C18.0502 26.2562 18.3383 26.3751 18.6737 26.4567C18.7937 26.8519 19.1543 27.1275 19.5683 27.1275H27.9678C29.0058 27.1275 29.0125 25.8497 28.8832 25.1003C28.7491 24.3222 28.355 23.6025 27.7009 23.1578C27.696 21.7726 27.3062 20.6419 26.7442 19.5431ZM18.3702 15.8381C18.1243 16.0985 17.7794 16.2616 17.3971 16.2616C16.6528 16.2616 16.0472 15.6461 16.0472 14.8896C16.0472 14.1331 16.6528 13.5176 17.3971 13.5176C17.7655 13.5176 18.0995 13.6687 18.3433 13.9126C18.3006 14.2166 18.2795 14.5536 18.2795 14.9356C18.2795 15.2728 18.3111 15.571 18.3702 15.8381ZM21.4726 15.9318C21.6063 15.2351 22.084 14.6283 22.3823 13.9956C22.6436 13.4413 22.8104 12.8322 23.1585 12.3247C23.7888 11.4056 24.8609 10.8551 25.9635 10.9048C26.5147 11.6729 26.7096 12.603 27.0118 13.4861C27.1447 13.8742 27.2889 14.259 27.5067 14.6068C27.7639 15.0175 27.9586 15.4471 28.0306 15.9326L27.8017 15.858C27.4608 15.7183 27.2429 16.2508 27.4674 16.479L27.9082 16.927C27.9327 16.9519 27.9603 16.9714 27.9889 16.9883C27.6015 18.5303 25.7975 18.9809 24.4436 19.1182C22.87 19.0148 21.1315 17.7097 21.4726 15.9318ZM25.9793 26.0326H19.6918H19.6909H19.6892C19.6677 25.8128 19.6411 25.6113 19.7776 25.4277C19.9283 25.2248 20.1799 25.0926 20.4 24.9856C21.0721 24.6589 21.8256 24.4845 22.5569 24.3619C23.3084 24.2358 24.1762 24.104 24.9163 24.3481C25.6215 24.5806 26.0928 25.2647 25.9793 26.0326ZM26.2671 25.7357C26.1982 24.7025 25.4421 24.0695 24.4627 23.9607C25.0952 23.9133 25.7898 23.9132 26.3105 24.3378C26.7855 24.725 26.9986 25.4293 26.9138 26.0326H26.2622C26.2738 25.9337 26.2738 25.8349 26.2671 25.7357ZM27.0897 25.0209C26.8871 24.3787 26.3882 23.9243 25.7519 23.7501C26.3726 23.7329 27.0098 23.8576 27.4246 24.3677C27.7815 24.8066 27.9246 25.4726 27.8493 26.0326H27.1966C27.2356 25.6981 27.1907 25.3407 27.0897 25.0209ZM26.96 23.0415C26.96 23.2425 26.9436 23.4463 26.9061 23.6439C26.5454 23.4943 26.156 23.4519 25.7693 23.465C25.4627 22.3678 25.623 21.1432 26.2352 20.1832C26.6426 21.0669 26.96 22.0562 26.96 23.0415ZM24.9079 14.8475C24.8896 14.2431 25.2172 13.7424 25.6397 13.7292C26.0621 13.716 26.4195 14.1952 26.4378 14.7996C26.4561 15.404 26.1285 15.9047 25.706 15.9179C25.2836 15.9312 24.9262 15.4519 24.9079 14.8475Z" fill="#753F8C"/>
</g>
<path d="M48.529 21V18.66L48.682 19.074L46.009 14.7H46.72L49.069 18.543H48.691L51.04 14.7H51.706L49.033 19.074L49.186 18.66V21H48.529ZM54.976 21V19.956L54.949 19.785V18.039C54.949 17.637 54.835 17.328 54.607 17.112C54.385 16.896 54.052 16.788 53.608 16.788C53.302 16.788 53.011 16.839 52.735 16.941C52.459 17.043 52.225 17.178 52.033 17.346L51.745 16.869C51.985 16.665 52.273 16.509 52.609 16.401C52.945 16.287 53.299 16.23 53.671 16.23C54.283 16.23 54.754 16.383 55.084 16.689C55.42 16.989 55.588 17.448 55.588 18.066V21H54.976ZM53.347 21.045C52.993 21.045 52.684 20.988 52.42 20.874C52.162 20.754 51.964 20.592 51.826 20.388C51.688 20.178 51.619 19.938 51.619 19.668C51.619 19.422 51.676 19.2 51.79 19.002C51.91 18.798 52.102 18.636 52.366 18.516C52.636 18.39 52.996 18.327 53.446 18.327H55.075V18.804H53.464C53.008 18.804 52.69 18.885 52.51 19.047C52.336 19.209 52.249 19.41 52.249 19.65C52.249 19.92 52.354 20.136 52.564 20.298C52.774 20.46 53.068 20.541 53.446 20.541C53.806 20.541 54.115 20.46 54.373 20.298C54.637 20.13 54.829 19.89 54.949 19.578L55.093 20.019C54.973 20.331 54.763 20.58 54.463 20.766C54.169 20.952 53.797 21.045 53.347 21.045ZM59.7356 16.23C60.1196 16.23 60.4556 16.305 60.7436 16.455C61.0376 16.599 61.2656 16.821 61.4276 17.121C61.5956 17.421 61.6796 17.799 61.6796 18.255V21H61.0406V18.318C61.0406 17.82 60.9146 17.445 60.6626 17.193C60.4166 16.935 60.0686 16.806 59.6186 16.806C59.2826 16.806 58.9886 16.875 58.7366 17.013C58.4906 17.145 58.2986 17.34 58.1606 17.598C58.0286 17.85 57.9626 18.156 57.9626 18.516V21H57.3236V16.275H57.9356V17.571L57.8366 17.328C57.9866 16.986 58.2266 16.719 58.5566 16.527C58.8866 16.329 59.2796 16.23 59.7356 16.23ZM66.3666 21V19.956L66.3396 19.785V18.039C66.3396 17.637 66.2256 17.328 65.9976 17.112C65.7756 16.896 65.4426 16.788 64.9986 16.788C64.6926 16.788 64.4016 16.839 64.1256 16.941C63.8496 17.043 63.6156 17.178 63.4236 17.346L63.1356 16.869C63.3756 16.665 63.6636 16.509 63.9996 16.401C64.3356 16.287 64.6896 16.23 65.0616 16.23C65.6736 16.23 66.1446 16.383 66.4746 16.689C66.8106 16.989 66.9786 17.448 66.9786 18.066V21H66.3666ZM64.7376 21.045C64.3836 21.045 64.0746 20.988 63.8106 20.874C63.5526 20.754 63.3546 20.592 63.2166 20.388C63.0786 20.178 63.0096 19.938 63.0096 19.668C63.0096 19.422 63.0666 19.2 63.1806 19.002C63.3006 18.798 63.4926 18.636 63.7566 18.516C64.0266 18.39 64.3866 18.327 64.8366 18.327H66.4656V18.804H64.8546C64.3986 18.804 64.0806 18.885 63.9006 19.047C63.7266 19.209 63.6396 19.41 63.6396 19.65C63.6396 19.92 63.7446 20.136 63.9546 20.298C64.1646 20.46 64.4586 20.541 64.8366 20.541C65.1966 20.541 65.5056 20.46 65.7636 20.298C66.0276 20.13 66.2196 19.89 66.3396 19.578L66.4836 20.019C66.3636 20.331 66.1536 20.58 65.8536 20.766C65.5596 20.952 65.1876 21.045 64.7376 21.045ZM72.4287 21V15.276H70.2147V14.7H75.3087V15.276H73.0947V21H72.4287ZM78.935 21V19.956L78.908 19.785V18.039C78.908 17.637 78.794 17.328 78.566 17.112C78.344 16.896 78.011 16.788 77.567 16.788C77.261 16.788 76.97 16.839 76.694 16.941C76.418 17.043 76.184 17.178 75.992 17.346L75.704 16.869C75.944 16.665 76.232 16.509 76.568 16.401C76.904 16.287 77.258 16.23 77.63 16.23C78.242 16.23 78.713 16.383 79.043 16.689C79.379 16.989 79.547 17.448 79.547 18.066V21H78.935ZM77.306 21.045C76.952 21.045 76.643 20.988 76.379 20.874C76.121 20.754 75.923 20.592 75.785 20.388C75.647 20.178 75.578 19.938 75.578 19.668C75.578 19.422 75.635 19.2 75.749 19.002C75.869 18.798 76.061 18.636 76.325 18.516C76.595 18.39 76.955 18.327 77.405 18.327H79.034V18.804H77.423C76.967 18.804 76.649 18.885 76.469 19.047C76.295 19.209 76.208 19.41 76.208 19.65C76.208 19.92 76.313 20.136 76.523 20.298C76.733 20.46 77.027 20.541 77.405 20.541C77.765 20.541 78.074 20.46 78.332 20.298C78.596 20.13 78.788 19.89 78.908 19.578L79.052 20.019C78.932 20.331 78.722 20.58 78.422 20.766C78.128 20.952 77.756 21.045 77.306 21.045ZM87.1866 16.23C87.5706 16.23 87.9036 16.305 88.1856 16.455C88.4736 16.599 88.6956 16.821 88.8516 17.121C89.0136 17.421 89.0946 17.799 89.0946 18.255V21H88.4556V18.318C88.4556 17.82 88.3356 17.445 88.0956 17.193C87.8616 16.935 87.5286 16.806 87.0966 16.806C86.7726 16.806 86.4906 16.875 86.2506 17.013C86.0166 17.145 85.8336 17.34 85.7016 17.598C85.5756 17.85 85.5126 18.156 85.5126 18.516V21H84.8736V18.318C84.8736 17.82 84.7536 17.445 84.5136 17.193C84.2736 16.935 83.9376 16.806 83.5056 16.806C83.1876 16.806 82.9086 16.875 82.6686 17.013C82.4286 17.145 82.2426 17.34 82.1106 17.598C81.9846 17.85 81.9216 18.156 81.9216 18.516V21H81.2826V16.275H81.8946V17.553L81.7956 17.328C81.9396 16.986 82.1706 16.719 82.4886 16.527C82.8126 16.329 83.1936 16.23 83.6316 16.23C84.0936 16.23 84.4866 16.347 84.8106 16.581C85.1346 16.809 85.3446 17.154 85.4406 17.616L85.1886 17.517C85.3266 17.133 85.5696 16.824 85.9176 16.59C86.2716 16.35 86.6946 16.23 87.1866 16.23ZM91.3315 19.776L91.3495 18.957L94.2925 16.275H95.0755L92.9965 18.264L92.6365 18.57L91.3315 19.776ZM90.8275 21V14.322H91.4665V21H90.8275ZM94.4905 21L92.5195 18.543L92.9335 18.048L95.2735 21H94.4905ZM97.9742 21.045C97.5182 21.045 97.1072 20.943 96.7412 20.739C96.3812 20.529 96.0962 20.244 95.8862 19.884C95.6762 19.518 95.5712 19.101 95.5712 18.633C95.5712 18.159 95.6762 17.742 95.8862 17.382C96.0962 17.022 96.3812 16.74 96.7412 16.536C97.1012 16.332 97.5122 16.23 97.9742 16.23C98.4422 16.23 98.8562 16.332 99.2162 16.536C99.5822 16.74 99.8672 17.022 100.071 17.382C100.281 17.742 100.386 18.159 100.386 18.633C100.386 19.101 100.281 19.518 100.071 19.884C99.8672 20.244 99.5822 20.529 99.2162 20.739C98.8502 20.943 98.4362 21.045 97.9742 21.045ZM97.9742 20.478C98.3162 20.478 98.6192 20.403 98.8832 20.253C99.1472 20.097 99.3542 19.881 99.5042 19.605C99.6602 19.323 99.7382 18.999 99.7382 18.633C99.7382 18.261 99.6602 17.937 99.5042 17.661C99.3542 17.385 99.1472 17.172 98.8832 17.022C98.6192 16.866 98.3192 16.788 97.9832 16.788C97.6472 16.788 97.3472 16.866 97.0832 17.022C96.8192 17.172 96.6092 17.385 96.4532 17.661C96.2972 17.937 96.2192 18.261 96.2192 18.633C96.2192 18.999 96.2972 19.323 96.4532 19.605C96.6092 19.881 96.8192 20.097 97.0832 20.253C97.3472 20.403 97.6442 20.478 97.9742 20.478ZM102.774 21L100.677 16.275H101.343L103.269 20.658H102.954L104.907 16.275H105.537L103.431 21H102.774ZM106.437 21V16.275H107.076V21H106.437ZM106.761 15.231C106.629 15.231 106.518 15.186 106.428 15.096C106.338 15.006 106.293 14.898 106.293 14.772C106.293 14.646 106.338 14.541 106.428 14.457C106.518 14.367 106.629 14.322 106.761 14.322C106.893 14.322 107.004 14.364 107.094 14.448C107.184 14.532 107.229 14.637 107.229 14.763C107.229 14.895 107.184 15.006 107.094 15.096C107.01 15.186 106.899 15.231 106.761 15.231ZM110.816 21.045C110.348 21.045 109.928 20.943 109.556 20.739C109.19 20.529 108.902 20.244 108.692 19.884C108.482 19.518 108.377 19.101 108.377 18.633C108.377 18.159 108.482 17.742 108.692 17.382C108.902 17.022 109.19 16.74 109.556 16.536C109.928 16.332 110.348 16.23 110.816 16.23C111.218 16.23 111.581 16.308 111.905 16.464C112.229 16.62 112.484 16.854 112.67 17.166L112.193 17.49C112.031 17.25 111.83 17.073 111.59 16.959C111.35 16.845 111.089 16.788 110.807 16.788C110.471 16.788 110.168 16.866 109.898 17.022C109.628 17.172 109.415 17.385 109.259 17.661C109.103 17.937 109.025 18.261 109.025 18.633C109.025 19.005 109.103 19.329 109.259 19.605C109.415 19.881 109.628 20.097 109.898 20.253C110.168 20.403 110.471 20.478 110.807 20.478C111.089 20.478 111.35 20.421 111.59 20.307C111.83 20.193 112.031 20.019 112.193 19.785L112.67 20.109C112.484 20.415 112.229 20.649 111.905 20.811C111.581 20.967 111.218 21.045 110.816 21.045ZM116.267 16.23C116.651 16.23 116.987 16.305 117.275 16.455C117.569 16.599 117.797 16.821 117.959 17.121C118.127 17.421 118.211 17.799 118.211 18.255V21H117.572V18.318C117.572 17.82 117.446 17.445 117.194 17.193C116.948 16.935 116.6 16.806 116.15 16.806C115.814 16.806 115.52 16.875 115.268 17.013C115.022 17.145 114.83 17.34 114.692 17.598C114.56 17.85 114.494 18.156 114.494 18.516V21H113.855V14.322H114.494V17.571L114.368 17.328C114.518 16.986 114.758 16.719 115.088 16.527C115.418 16.329 115.811 16.23 116.267 16.23Z" fill="#B8B8B8"/>
<defs>
<clipPath id="clip0_9_16">
<rect width="22" height="19.1304" fill="white" transform="translate(7 8)"/>
</clipPath>
</defs>
</svg>
